# xmcd
#
# Track frame offsets:
#	150
#	14163
#	27737
#	41493
#	56362
#	71337
#	86419
#	102692
#	122537
#	144173
#	154871
#	159403
#	172689
#	185777
#	200814
#	225547
#	240465
#	257589
#	276123
#	291129
#	303960
#	319260
#
# Disc length: 4498 seconds
#
# Revision: 0
# Processed by: cddbd v1.5.2PL0 Copyright (c) Steve Scherf et al.
# Submitted via: EasyCDDAExtractor 11.0.0.1
#
DISCID=32119016
DTITLE=Διάφοροι - ΣΥΛΛΟΓΕΣ ΣΤΟΑ ΑΘΑΝΑΤΩΝ
DYEAR=2000
DGENRE=ΕΝΤΕΧΝΑ
TTITLE0=Στοά αθανάτων_01 Αγγελοκαμωμένη
TTITLE1=Στοά αθανάτων_02 Στα κλειστά παράθυρα
TTITLE2=Στοά αθανάτων_03 Η πεντάμορφη
TTITLE3=Στοά αθανάτων_04 Ο μπουφετζής
TTITLE4=Στοά αθανάτων_05 Ξημέρωσε Ξημέρωσε
TTITLE5=Στοά αθανάτων_06 Πές μου αν με βαρέθηκες
TTITLE6=Στοά αθανάτων_07 Καλλιοπάκι
TTITLE7=Στοά αθανάτων_08 Θάλασσα λυπήσου
TTITLE8=Στοά αθανάτων_09 Τζαμάλ
TTITLE9=Στοά αθανάτων_10 Μάγκας βγήκε για σεργιάνι
TTITLE10=Στοά αθανάτων_11 Όταν συμβεί στα πέριξ
TTITLE11=Στοά αθανάτων_12 Η δροσούλα
TTITLE12=Στοά αθανάτων_13 Θέλω να πάψεις να γελάς
TTITLE13=Στοά αθανάτων_14 Αγάπησα και μίσησα
TTITLE14=Στοά αθανάτων_15 Μπάρμπα Γιαννακάκης
TTITLE15=Στοά αθανάτων_16 Το κορόϊδο
TTITLE16=Στοά αθανάτων_17 Ο μαχαλάς
TTITLE17=Στοά αθανάτων_18 Το πλουσιόπαιδο
TTITLE18=Στοά αθανάτων_19 Τα νιάτα τα μπερμπάντικα
TTITLE19=Στοά αθανάτων_20 Κάηκε το γαλαξίδι
TTITLE20=Στοά αθανάτων_21 Η φοβερή η ζήλεια μου
TTITLE21=Στοά αθανάτων_22 Πλήγωσέ με όσο θές
EXTD=
EXTT0=
EXTT1=
EXTT2=
EXTT3=
EXTT4=
EXTT5=
EXTT6=
EXTT7=
EXTT8=
EXTT9=
EXTT10=
EXTT11=
EXTT12=
EXTT13=
EXTT14=
EXTT15=
EXTT16=
EXTT17=
EXTT18=
EXTT19=
EXTT20=
EXTT21=
PLAYORDER=
